<svg width="1137" height="786" xmlns="http://www.w3.org/2000/svg" xmlns:xlink="http://www.w3.org/1999/xlink" overflow="hidden"><defs><clipPath id="clip0"><rect x="1838" y="727" width="1137" height="786"/></clipPath><clipPath id="clip1"><rect x="2729" y="727" width="247" height="247"/></clipPath><clipPath id="clip2"><rect x="2729" y="727" width="247" height="247"/></clipPath><clipPath id="clip3"><rect x="2729" y="727" width="247" height="247"/></clipPath></defs><g clip-path="url(#clip0)" transform="translate(-1838 -727)"><path d="M2503 1179C2503 1146.42 2528.97 1120 2561 1120 2593.03 1120 2619 1146.42 2619 1179 2619 1211.58 2593.03 1238 2561 1238 2528.97 1238 2503 1211.58 2503 1179Z" fill="#FF0000" fill-rule="evenodd"/><path d="M2558 1234C2558 1201.42 2583.97 1175 2616 1175 2648.03 1175 2674 1201.42 2674 1234 2674 1266.58 2648.03 1293 2616 1293 2583.97 1293 2558 1266.58 2558 1234Z" fill="#FF0000" fill-rule="evenodd"/><path d="M2613 1289C2613 1256.42 2638.97 1230 2671 1230 2703.03 1230 2729 1256.42 2729 1289 2729 1321.58 2703.03 1348 2671 1348 2638.97 1348 2613 1321.58 2613 1289Z" fill="#FF0000" fill-rule="evenodd"/><path d="M2668 1344C2668 1311.42 2693.97 1285 2726 1285 2758.03 1285 2784 1311.42 2784 1344 2784 1376.58 2758.03 1403 2726 1403 2693.97 1403 2668 1376.58 2668 1344Z" fill="#FF0000" fill-rule="evenodd"/><path d="M2723 1399C2723 1366.42 2748.97 1340 2781 1340 2813.03 1340 2839 1366.42 2839 1399 2839 1431.58 2813.03 1458 2781 1458 2748.97 1458 2723 1431.58 2723 1399Z" fill="#FF0000" fill-rule="evenodd"/><path d="M2778 1454C2778 1421.42 2803.97 1395 2836 1395 2868.03 1395 2894 1421.42 2894 1454 2894 1486.58 2868.03 1513 2836 1513 2803.97 1513 2778 1486.58 2778 1454Z" fill="#FF0000" fill-rule="evenodd"/><path d="M1838 951C1838 918.415 1863.97 892 1896 892 1928.03 892 1954 918.415 1954 951 1954 983.585 1928.03 1010 1896 1010 1863.97 1010 1838 983.585 1838 951Z" fill="#FFD966" fill-rule="evenodd"/><path d="M1893 1006C1893 973.415 1918.97 947 1951 947 1983.03 947 2009 973.415 2009 1006 2009 1038.58 1983.03 1065 1951 1065 1918.97 1065 1893 1038.58 1893 1006Z" fill="#FFD966" fill-rule="evenodd"/><path d="M1948 1061C1948 1028.42 1973.97 1002 2006 1002 2038.03 1002 2064 1028.42 2064 1061 2064 1093.58 2038.03 1120 2006 1120 1973.97 1120 1948 1093.58 1948 1061Z" fill="#FFD966" fill-rule="evenodd"/><path d="M2003 1116C2003 1083.42 2028.97 1057 2061 1057 2093.03 1057 2119 1083.42 2119 1116 2119 1148.58 2093.03 1175 2061 1175 2028.97 1175 2003 1148.58 2003 1116Z" fill="#FFD966" fill-rule="evenodd"/><path d="M2058 1171C2058 1138.42 2083.97 1112 2116 1112 2148.03 1112 2174 1138.42 2174 1171 2174 1203.58 2148.03 1230 2116 1230 2083.97 1230 2058 1203.58 2058 1171Z" fill="#FFD966" fill-rule="evenodd"/><path d="M2113 1226C2113 1193.42 2138.97 1167 2171 1167 2203.03 1167 2229 1193.42 2229 1226 2229 1258.58 2203.03 1285 2171 1285 2138.97 1285 2113 1258.58 2113 1226Z" fill="#FFD966" fill-rule="evenodd"/><path d="M2223.5 1336.5C2223.5 1303.92 2249.47 1277.5 2281.5 1277.5 2313.53 1277.5 2339.5 1303.92 2339.5 1336.5 2339.5 1369.08 2313.53 1395.5 2281.5 1395.5 2249.47 1395.5 2223.5 1369.08 2223.5 1336.5Z" stroke="#000000" stroke-width="4.58333" stroke-miterlimit="8" stroke-dasharray="13.75 4.58333" fill="none" fill-rule="evenodd"/><path d="M2333 1218C2333 1185.42 2358.74 1159 2390.5 1159 2422.26 1159 2448 1185.42 2448 1218 2448 1250.58 2422.26 1277 2390.5 1277 2358.74 1277 2333 1250.58 2333 1218Z" fill="#F4B183" fill-rule="evenodd"/><path d="M2168.5 1281.5C2168.5 1248.92 2194.47 1222.5 2226.5 1222.5 2258.53 1222.5 2284.5 1248.92 2284.5 1281.5 2284.5 1314.08 2258.53 1340.5 2226.5 1340.5 2194.47 1340.5 2168.5 1314.08 2168.5 1281.5Z" stroke="#000000" stroke-width="4.58333" stroke-miterlimit="8" stroke-dasharray="13.75 4.58333" fill="none" fill-rule="evenodd"/><path d="M2448.5 1124.5C2448.5 1091.92 2474.47 1065.5 2506.5 1065.5 2538.53 1065.5 2564.5 1091.92 2564.5 1124.5 2564.5 1157.08 2538.53 1183.5 2506.5 1183.5 2474.47 1183.5 2448.5 1157.08 2448.5 1124.5Z" stroke="#000000" stroke-width="4.58333" stroke-miterlimit="8" stroke-dasharray="13.75 4.58333" fill="none" fill-rule="evenodd"/><g clip-path="url(#clip1)"><g clip-path="url(#clip2)"><g clip-path="url(#clip3)"><path d="M2944.25 788.5 2894.45 788.5 2879.08 762.875 2824.92 762.875 2809.55 788.5 2759.75 788.5C2752.68 788.509 2746.95 794.24 2746.94 801.313L2746.94 924.313C2746.95 931.385 2752.68 937.117 2759.75 937.125L2944.25 937.125C2951.32 937.117 2957.05 931.385 2957.06 924.313L2957.06 801.313C2957.05 794.24 2951.32 788.509 2944.25 788.5ZM2827.83 768 2876.17 768 2888.47 788.5 2815.53 788.5ZM2944.25 793.625C2948.5 793.625 2951.94 797.067 2951.94 801.313L2951.94 924.313C2951.94 928.558 2948.5 932 2944.25 932L2759.75 932C2755.5 932 2752.06 928.558 2752.06 924.313L2752.06 801.313C2752.06 797.067 2755.5 793.625 2759.75 793.625Z"/><path d="M2767.44 832.063 2800.75 832.063 2800.75 809 2767.44 809ZM2772.56 814.125 2795.62 814.125 2795.62 826.938 2772.56 826.938Z"/><path d="M2852 821.813C2826.53 821.813 2805.88 842.464 2805.88 867.938 2805.88 893.412 2826.53 914.063 2852 914.063 2877.47 914.063 2898.12 893.412 2898.12 867.938 2898.1 842.476 2877.46 821.842 2852 821.813ZM2852 908.938C2829.36 908.938 2811 890.581 2811 867.938 2811 845.294 2829.36 826.938 2852 826.938 2874.64 826.938 2893 845.294 2893 867.938 2892.97 890.57 2874.63 908.911 2852 908.938Z"/><path d="M2852 837.188C2835.02 837.188 2821.25 850.955 2821.25 867.938 2821.25 884.92 2835.02 898.688 2852 898.688 2868.98 898.688 2882.75 884.92 2882.75 867.938 2882.73 850.963 2868.98 837.206 2852 837.188ZM2852 893.563C2837.85 893.563 2826.38 882.09 2826.38 867.938 2826.38 853.785 2837.85 842.313 2852 842.313 2866.15 842.313 2877.62 853.785 2877.62 867.938 2877.61 882.083 2866.15 893.547 2852 893.563Z"/></g></g></g><path d="M2388 1273C2388 1240.42 2413.74 1214 2445.5 1214 2477.26 1214 2503 1240.42 2503 1273 2503 1305.58 2477.26 1332 2445.5 1332 2413.74 1332 2388 1305.58 2388 1273Z" fill="#F4B183" fill-rule="evenodd"/><path d="M2283 1152C2283 1119.42 2308.97 1093 2341 1093 2373.03 1093 2399 1119.42 2399 1152 2399 1184.58 2373.03 1211 2341 1211 2308.97 1211 2283 1184.58 2283 1152Z" fill="#F4B183" fill-rule="evenodd"/><path d="M0.802402-0.817976 40.5104 38.134 38.9056 39.7699-0.802402 0.817976ZM46.0649 25.9266 56.0675 55 26.8073 45.5581Z" transform="matrix(1 0 0 -1 2379 1113)"/><path d="M0.802402-0.817976 40.5104 38.134 38.9056 39.7699-0.802402 0.817976ZM46.0649 25.9266 56.0675 55 26.8073 45.5581Z" transform="matrix(1 0 0 -1 2267 1230)"/><path d="M0.854189-0.763738 41.9169 45.1621 40.2085 46.6896-0.854189 0.763738ZM48.258 33.3443 56.3375 63.0096 27.7575 51.674Z" transform="matrix(1 0 0 -1 2322 1285.01)"/><path d="M0.898206-0.711449 42.7367 52.1098 40.9403 53.5327-0.898206 0.711449ZM49.7712 40.6911 56.0675 70.7854 28.2143 57.7659Z" transform="matrix(1 0 0 -1 2432 1178.79)"/><path d="M0.986334-0.583163 30.9726 50.1342 28.9999 51.3005-0.986334 0.583163ZM39.4896 39.7741 41.6495 70.444 15.8176 53.77Z" transform="matrix(1 0 0 -1 2536 1086.44)"/><path d="M0.986334-0.583163 30.9726 50.1342 28.9999 51.3005-0.986334 0.583163ZM39.4896 39.7741 41.6495 70.444 15.8176 53.77Z" transform="matrix(1 0 0 -1 2456 1231.44)"/><path d="M16.8288 15.5974 111.23 112.292 109.59 113.893 15.189 17.1983ZM9.37195 29.2827 0 0 29.0494 10.0721ZM117.047 100.208 126.419 129.49 97.3694 119.418Z" fill="#4472C4" transform="matrix(1 0 0 -1 2165 1225.49)"/><text font-family="Times New Roman,Times New Roman_MSFontService,sans-serif" font-weight="400" font-size="83" transform="matrix(1 0 0 1 2186.84 1157)">d</text></g></svg>