<svg width="1194" height="788" xmlns="http://www.w3.org/2000/svg" xmlns:xlink="http://www.w3.org/1999/xlink" overflow="hidden"><defs><clipPath id="clip0"><rect x="1838" y="727" width="1194" height="788"/></clipPath><clipPath id="clip1"><rect x="2729" y="727" width="247" height="247"/></clipPath><clipPath id="clip2"><rect x="2729" y="727" width="247" height="247"/></clipPath><clipPath id="clip3"><rect x="2729" y="727" width="247" height="247"/></clipPath></defs><g clip-path="url(#clip0)" transform="translate(-1838 -727)"><path d="M2393 1069C2393 1036.42 2418.97 1010 2451 1010 2483.03 1010 2509 1036.42 2509 1069 2509 1101.58 2483.03 1128 2451 1128 2418.97 1128 2393 1101.58 2393 1069Z" fill="#FF0000" fill-rule="evenodd"/><path d="M2503 1179C2503 1146.42 2528.97 1120 2561 1120 2593.03 1120 2619 1146.42 2619 1179 2619 1211.58 2593.03 1238 2561 1238 2528.97 1238 2503 1211.58 2503 1179Z" fill="#FF0000" fill-rule="evenodd"/><path d="M2558 1234C2558 1201.42 2583.97 1175 2616 1175 2648.03 1175 2674 1201.42 2674 1234 2674 1266.58 2648.03 1293 2616 1293 2583.97 1293 2558 1266.58 2558 1234Z" fill="#FF0000" fill-rule="evenodd"/><path d="M2613 1289C2613 1256.42 2638.97 1230 2671 1230 2703.03 1230 2729 1256.42 2729 1289 2729 1321.58 2703.03 1348 2671 1348 2638.97 1348 2613 1321.58 2613 1289Z" fill="#FF0000" fill-rule="evenodd"/><path d="M2668 1344C2668 1311.42 2693.97 1285 2726 1285 2758.03 1285 2784 1311.42 2784 1344 2784 1376.58 2758.03 1403 2726 1403 2693.97 1403 2668 1376.58 2668 1344Z" fill="#FF0000" fill-rule="evenodd"/><path d="M2723 1399C2723 1366.42 2748.97 1340 2781 1340 2813.03 1340 2839 1366.42 2839 1399 2839 1431.58 2813.03 1458 2781 1458 2748.97 1458 2723 1431.58 2723 1399Z" fill="#FF0000" fill-rule="evenodd"/><path d="M2778 1454C2778 1421.42 2803.97 1395 2836 1395 2868.03 1395 2894 1421.42 2894 1454 2894 1486.58 2868.03 1513 2836 1513 2803.97 1513 2778 1486.58 2778 1454Z" fill="#FF0000" fill-rule="evenodd"/><path d="M1838 951C1838 918.415 1863.97 892 1896 892 1928.03 892 1954 918.415 1954 951 1954 983.585 1928.03 1010 1896 1010 1863.97 1010 1838 983.585 1838 951Z" fill="#FFD966" fill-rule="evenodd"/><path d="M1893 1006C1893 973.415 1918.97 947 1951 947 1983.03 947 2009 973.415 2009 1006 2009 1038.58 1983.03 1065 1951 1065 1918.97 1065 1893 1038.58 1893 1006Z" fill="#FFD966" fill-rule="evenodd"/><path d="M1948 1061C1948 1028.42 1973.97 1002 2006 1002 2038.03 1002 2064 1028.42 2064 1061 2064 1093.58 2038.03 1120 2006 1120 1973.97 1120 1948 1093.58 1948 1061Z" fill="#FFD966" fill-rule="evenodd"/><path d="M2003 1116C2003 1083.42 2028.97 1057 2061 1057 2093.03 1057 2119 1083.42 2119 1116 2119 1148.58 2093.03 1175 2061 1175 2028.97 1175 2003 1148.58 2003 1116Z" fill="#FFD966" fill-rule="evenodd"/><path d="M2058 1171C2058 1138.42 2083.97 1112 2116 1112 2148.03 1112 2174 1138.42 2174 1171 2174 1203.58 2148.03 1230 2116 1230 2083.97 1230 2058 1203.58 2058 1171Z" fill="#FFD966" fill-rule="evenodd"/><path d="M2113 1226C2113 1193.42 2138.97 1167 2171 1167 2203.03 1167 2229 1193.42 2229 1226 2229 1258.58 2203.03 1285 2171 1285 2138.97 1285 2113 1258.58 2113 1226Z" fill="#FFD966" fill-rule="evenodd"/><path d="M2223 1336C2223 1303.42 2248.97 1277 2281 1277 2313.03 1277 2339 1303.42 2339 1336 2339 1368.58 2313.03 1395 2281 1395 2248.97 1395 2223 1368.58 2223 1336Z" fill="#FFD966" fill-rule="evenodd"/><path d="M17.6892 14.6152 281.819 256.024 280.273 257.716 16.1432 16.3068ZM11.0225 28.7022 0 0 29.5753 8.40328ZM286.94 243.628 297.962 272.33 268.387 263.927Z" fill="#4472C4" transform="matrix(1 0 0 -1 2337 1395.33)"/><path d="M2305 732 3030.14 1513.75" stroke="#4472C4" stroke-width="2.29167" stroke-miterlimit="8" stroke-dasharray="9.16667 6.875" fill="none" fill-rule="evenodd"/><path d="M2333 1218C2333 1185.42 2358.74 1159 2390.5 1159 2422.26 1159 2448 1185.42 2448 1218 2448 1250.58 2422.26 1277 2390.5 1277 2358.74 1277 2333 1250.58 2333 1218Z" fill="#F4B183" fill-rule="evenodd"/><path d="M2168.5 1281.5C2168.5 1248.92 2194.47 1222.5 2226.5 1222.5 2258.53 1222.5 2284.5 1248.92 2284.5 1281.5 2284.5 1314.08 2258.53 1340.5 2226.5 1340.5 2194.47 1340.5 2168.5 1314.08 2168.5 1281.5Z" stroke="#000000" stroke-width="4.58333" stroke-miterlimit="8" stroke-dasharray="13.75 4.58333" fill="none" fill-rule="evenodd"/><path d="M2448.5 1124.5C2448.5 1091.92 2474.47 1065.5 2506.5 1065.5 2538.53 1065.5 2564.5 1091.92 2564.5 1124.5 2564.5 1157.08 2538.53 1183.5 2506.5 1183.5 2474.47 1183.5 2448.5 1157.08 2448.5 1124.5Z" stroke="#000000" stroke-width="4.58333" stroke-miterlimit="8" stroke-dasharray="13.75 4.58333" fill="none" fill-rule="evenodd"/><g clip-path="url(#clip1)"><g clip-path="url(#clip2)"><g clip-path="url(#clip3)"><path d="M2944.25 788.5 2894.45 788.5 2879.08 762.875 2824.92 762.875 2809.55 788.5 2759.75 788.5C2752.68 788.509 2746.95 794.24 2746.94 801.313L2746.94 924.313C2746.95 931.385 2752.68 937.117 2759.75 937.125L2944.25 937.125C2951.32 937.117 2957.05 931.385 2957.06 924.313L2957.06 801.313C2957.05 794.24 2951.32 788.509 2944.25 788.5ZM2827.83 768 2876.17 768 2888.47 788.5 2815.53 788.5ZM2944.25 793.625C2948.5 793.625 2951.94 797.067 2951.94 801.313L2951.94 924.313C2951.94 928.558 2948.5 932 2944.25 932L2759.75 932C2755.5 932 2752.06 928.558 2752.06 924.313L2752.06 801.313C2752.06 797.067 2755.5 793.625 2759.75 793.625Z"/><path d="M2767.44 832.063 2800.75 832.063 2800.75 809 2767.44 809ZM2772.56 814.125 2795.62 814.125 2795.62 826.938 2772.56 826.938Z"/><path d="M2852 821.813C2826.53 821.813 2805.88 842.464 2805.88 867.938 2805.88 893.412 2826.53 914.063 2852 914.063 2877.47 914.063 2898.12 893.412 2898.12 867.938 2898.1 842.476 2877.46 821.842 2852 821.813ZM2852 908.938C2829.36 908.938 2811 890.581 2811 867.938 2811 845.294 2829.36 826.938 2852 826.938 2874.64 826.938 2893 845.294 2893 867.938 2892.97 890.57 2874.63 908.911 2852 908.938Z"/><path d="M2852 837.188C2835.02 837.188 2821.25 850.955 2821.25 867.938 2821.25 884.92 2835.02 898.688 2852 898.688 2868.98 898.688 2882.75 884.92 2882.75 867.938 2882.73 850.963 2868.98 837.206 2852 837.188ZM2852 893.563C2837.85 893.563 2826.38 882.09 2826.38 867.938 2826.38 853.785 2837.85 842.313 2852 842.313 2866.15 842.313 2877.62 853.785 2877.62 867.938 2877.61 882.083 2866.15 893.547 2852 893.563Z"/></g></g></g></g></svg>