<svg width="1099" height="787" xmlns="http://www.w3.org/2000/svg" xmlns:xlink="http://www.w3.org/1999/xlink" overflow="hidden"><defs><clipPath id="clip0"><rect x="205" y="648" width="1099" height="787"/></clipPath><clipPath id="clip1"><rect x="1058" y="647" width="246" height="249"/></clipPath><clipPath id="clip2"><rect x="1058" y="647" width="246" height="249"/></clipPath><clipPath id="clip3"><rect x="1058" y="647" width="246" height="249"/></clipPath></defs><g clip-path="url(#clip0)" transform="translate(-205 -648)"><path d="M815 1045.5C815 1012.64 840.744 986 872.5 986 904.256 986 930 1012.64 930 1045.5 930 1078.36 904.256 1105 872.5 1105 840.744 1105 815 1078.36 815 1045.5Z" fill="#FF0000" fill-rule="evenodd"/><path d="M870 1100.5C870 1067.64 895.744 1041 927.5 1041 959.256 1041 985 1067.64 985 1100.5 985 1133.36 959.256 1160 927.5 1160 895.744 1160 870 1133.36 870 1100.5Z" fill="#FF0000" fill-rule="evenodd"/><path d="M925 1155.5C925 1122.64 950.744 1096 982.5 1096 1014.26 1096 1040 1122.64 1040 1155.5 1040 1188.36 1014.26 1215 982.5 1215 950.744 1215 925 1188.36 925 1155.5Z" fill="#FF0000" fill-rule="evenodd"/><path d="M980 1210.5C980 1177.64 1005.74 1151 1037.5 1151 1069.26 1151 1095 1177.64 1095 1210.5 1095 1243.36 1069.26 1270 1037.5 1270 1005.74 1270 980 1243.36 980 1210.5Z" fill="#FF0000" fill-rule="evenodd"/><path d="M1035 1265.5C1035 1232.64 1060.74 1206 1092.5 1206 1124.26 1206 1150 1232.64 1150 1265.5 1150 1298.36 1124.26 1325 1092.5 1325 1060.74 1325 1035 1298.36 1035 1265.5Z" fill="#FF0000" fill-rule="evenodd"/><path d="M1090 1320.5C1090 1287.64 1115.74 1261 1147.5 1261 1179.26 1261 1205 1287.64 1205 1320.5 1205 1353.36 1179.26 1380 1147.5 1380 1115.74 1380 1090 1353.36 1090 1320.5Z" fill="#FF0000" fill-rule="evenodd"/><path d="M1145 1375.5C1145 1342.64 1170.74 1316 1202.5 1316 1234.26 1316 1260 1342.64 1260 1375.5 1260 1408.36 1234.26 1435 1202.5 1435 1170.74 1435 1145 1408.36 1145 1375.5Z" fill="#FF0000" fill-rule="evenodd"/><path d="M205 872.5C205 839.639 230.744 813 262.5 813 294.256 813 320 839.639 320 872.5 320 905.361 294.256 932 262.5 932 230.744 932 205 905.361 205 872.5Z" fill="#FFD966" fill-rule="evenodd"/><path d="M260 927.5C260 894.639 285.744 868 317.5 868 349.256 868 375 894.639 375 927.5 375 960.361 349.256 987 317.5 987 285.744 987 260 960.361 260 927.5Z" fill="#FFD966" fill-rule="evenodd"/><path d="M315 982.5C315 949.639 340.744 923 372.5 923 404.256 923 430 949.639 430 982.5 430 1015.36 404.256 1042 372.5 1042 340.744 1042 315 1015.36 315 982.5Z" fill="#FFD966" fill-rule="evenodd"/><path d="M370 1037.5C370 1004.64 395.744 978 427.5 978 459.256 978 485 1004.64 485 1037.5 485 1070.36 459.256 1097 427.5 1097 395.744 1097 370 1070.36 370 1037.5Z" fill="#FFD966" fill-rule="evenodd"/><path d="M425 1092.5C425 1059.64 450.744 1033 482.5 1033 514.256 1033 540 1059.64 540 1092.5 540 1125.36 514.256 1152 482.5 1152 450.744 1152 425 1125.36 425 1092.5Z" fill="#FFD966" fill-rule="evenodd"/><path d="M480 1147.5C480 1114.64 505.744 1088 537.5 1088 569.256 1088 595 1114.64 595 1147.5 595 1180.36 569.256 1207 537.5 1207 505.744 1207 480 1180.36 480 1147.5Z" fill="#FFD966" fill-rule="evenodd"/><path d="M535 1202.5C535 1169.64 560.744 1143 592.5 1143 624.256 1143 650 1169.64 650 1202.5 650 1235.36 624.256 1262 592.5 1262 560.744 1262 535 1235.36 535 1202.5Z" fill="#FFD966" fill-rule="evenodd"/><path d="M590 1257.5C590 1224.64 615.744 1198 647.5 1198 679.256 1198 705 1224.64 705 1257.5 705 1290.36 679.256 1317 647.5 1317 615.744 1317 590 1290.36 590 1257.5Z" fill="#FFD966" fill-rule="evenodd"/><g clip-path="url(#clip1)"><g clip-path="url(#clip2)"><g clip-path="url(#clip3)"><path d="M215.25 61.4999 165.45 61.4999 150.075 35.875 95.9245 35.875 80.5496 61.4999 30.75 61.4999C23.6774 61.5084 17.946 67.2397 17.9375 74.3124L17.9375 197.312C17.946 204.385 23.6774 210.116 30.75 210.125L215.25 210.125C222.323 210.116 228.054 204.385 228.062 197.312L228.062 74.3124C228.054 67.2397 222.323 61.5084 215.25 61.4999ZM98.8253 41 147.174 41 159.474 61.4999 86.5253 61.4999ZM215.25 66.6249C219.496 66.6249 222.937 70.0666 222.937 74.3124L222.937 197.312C222.937 201.558 219.496 205 215.25 205L30.75 205C26.5042 205 23.0625 201.558 23.0625 197.312L23.0625 74.3124C23.0625 70.0666 26.5042 66.6249 30.75 66.6249Z" transform="matrix(1 0 0 1.00407 1058 648)"/><path d="M38.4375 105.062 71.7499 105.062 71.7499 81.9999 38.4375 81.9999ZM43.5625 87.1249 66.6249 87.1249 66.6249 99.9374 43.5625 99.9374Z" transform="matrix(1 0 0 1.00407 1058 648)"/><path d="M123 94.8124C97.5258 94.8124 76.8749 115.463 76.8749 140.937 76.8749 166.411 97.5258 187.062 123 187.062 148.474 187.062 169.125 166.411 169.125 140.937 169.095 115.476 148.462 94.8421 123 94.8124ZM123 181.937C100.356 181.937 81.9999 163.581 81.9999 140.937 81.9999 118.294 100.356 99.9374 123 99.9374 145.644 99.9374 164 118.294 164 140.937 163.973 163.57 145.632 181.91 123 181.937Z" transform="matrix(1 0 0 1.00407 1058 648)"/><path d="M123 110.187C106.017 110.187 92.2499 123.955 92.2499 140.937 92.2499 157.92 106.017 171.687 123 171.687 139.983 171.687 153.75 157.92 153.75 140.937 153.731 123.962 139.975 110.206 123 110.187ZM123 166.562C108.848 166.562 97.3749 155.09 97.3749 140.937 97.3749 126.785 108.848 115.312 123 115.312 137.152 115.312 148.625 126.785 148.625 140.937 148.609 155.083 137.146 166.547 123 166.562Z" transform="matrix(1 0 0 1.00407 1058 648)"/></g></g></g><path d="M0.802402-0.817976 40.5104 38.134 38.9056 39.7699-0.802402 0.817976ZM46.0649 25.9266 56.0675 55 26.8073 45.5581Z" transform="matrix(1 0 0 -1 647 1198)"/><path d="M0.802402-0.817976 40.5104 38.134 38.9056 39.7699-0.802402 0.817976ZM46.0649 25.9266 56.0675 55 26.8073 45.5581Z" transform="matrix(1 0 0 -1 702 1253)"/><path d="M0.802402-0.817976 40.5104 38.134 38.9056 39.7699-0.802402 0.817976ZM46.0649 25.9266 56.0675 55 26.8073 45.5581Z" transform="matrix(1 0 0 -1 910 1006)"/></g></svg>